<?xml version="1.0" encoding="UTF-8"?>
<svg width="42px" height="43px" viewBox="0 0 42 43" version="1.1" xmlns="http://www.w3.org/2000/svg" xmlns:xlink="http://www.w3.org/1999/xlink">
    <!-- Generator: Sketch 54.1 (76490) - https://sketchapp.com -->
    <title>客户管理</title>
    <desc>Created with Sketch.</desc>
    <g id="客户管理" stroke="none" stroke-width="1" fill="none" fill-rule="evenodd" opacity="0.9">
        <g id="组件" transform="translate(-79.000000, -1086.000000)">
            <g id="bottom" transform="translate(0.000000, 1073.000000)">
                <g id="客户管理" transform="translate(79.000000, 14.000000)">
                    <rect id="矩形" stroke="#333333" stroke-width="3" x="5.5" y="3.5" width="31" height="34" rx="4"></rect>
                    <path d="M3.5,13 L8.5,13 C9.32842712,13 10,13.6715729 10,14.5 C10,15.3284271 9.32842712,16 8.5,16 L3.5,16 C2.67157288,16 2,15.3284271 2,14.5 C2,13.6715729 2.67157288,13 3.5,13 Z M3.5,19 L8.5,19 C9.32842712,19 10,19.6715729 10,20.5 C10,21.3284271 9.32842712,22 8.5,22 L3.5,22 C2.67157288,22 2,21.3284271 2,20.5 C2,19.6715729 2.67157288,19 3.5,19 Z M3.5,25 L8.5,25 C9.32842712,25 10,25.6715729 10,26.5 C10,27.3284271 9.32842712,28 8.5,28 L3.5,28 C2.67157288,28 2,27.3284271 2,26.5 C2,25.6715729 2.67157288,25 3.5,25 Z" id="形状结合" fill="#333333"></path>
                    <polyline id="路径" stroke="#333333" stroke-width="3" stroke-linejoin="round" points="30 5 30 20 25 16 20 20 20 5"></polyline>
                </g>
            </g>
        </g>
    </g>
</svg>