<?xml version="1.0" encoding="UTF-8"?>
<svg width="42px" height="43px" viewBox="0 0 42 43" version="1.1" xmlns="http://www.w3.org/2000/svg" xmlns:xlink="http://www.w3.org/1999/xlink">
    <!-- Generator: Sketch 54.1 (76490) - https://sketchapp.com -->
    <title>销售业绩</title>
    <desc>Created with Sketch.</desc>
    <g id="客户管理" stroke="none" stroke-width="1" fill="none" fill-rule="evenodd" opacity="0.9">
        <g id="组件" transform="translate(-262.000000, -1086.000000)">
            <g id="bottom" transform="translate(0.000000, 1073.000000)">
                <g id="报告" transform="translate(262.000000, 14.000000)">
                    <rect id="Rectangle" stroke="#333333" stroke-width="3" x="2.5" y="4.5" width="37" height="33" rx="4"></rect>
                    <path d="M21.5,14 C22.3284271,14 23,14.6715729 23,15.5 L23,28.5 C23,29.3284271 22.3284271,30 21.5,30 C20.6715729,30 20,29.3284271 20,28.5 L20,15.5 C20,14.6715729 20.6715729,14 21.5,14 Z M28.5,18 C29.3284271,18 30,18.6715729 30,19.5 L30,28.5 C30,29.3284271 29.3284271,30 28.5,30 C27.6715729,30 27,29.3284271 27,28.5 L27,19.5 C27,18.6715729 27.6715729,18 28.5,18 Z M14.5,22 C15.3284271,22 16,22.6715729 16,23.5 L16,28.5 C16,29.3284271 15.3284271,30 14.5,30 C13.6715729,30 13,29.3284271 13,28.5 L13,23.5 C13,22.6715729 13.6715729,22 14.5,22 Z" id="形状结合" fill="#333333"></path>
                </g>
            </g>
        </g>
    </g>
</svg>